<svg xmlns="http://www.w3.org/2000/svg" xmlns:xlink="http://www.w3.org/1999/xlink" id="visual" viewBox="0 0 900 600" width="900" height="600" version="1.1">
    <rect width="900" height="600" fill="#001829"/>
    <g>
      <g transform="translate(690 381)">
        <path d="M0 -88.8L76.9 -44.4L76.9 44.4L0 88.8L-76.9 44.4L-76.9 -44.4Z" fill="#12d0bd"/>
      </g>
      <g transform="translate(402 152)">
        <path d="M0 -67L58 -33.5L58 33.5L0 67L-58 33.5L-58 -33.5Z" fill="#12d0bd"/>
      </g>
      <g transform="translate(376 442)">
        <path d="M0 -62L53.7 -31L53.7 31L0 62L-53.7 31L-53.7 -31Z" fill="#12d0bd"/>
      </g>
      <g transform="translate(185 371)">
        <path d="M0 -49L42.4 -24.5L42.4 24.5L0 49L-42.4 24.5L-42.4 -24.5Z" fill="#12d0bd"/>
      </g>
      <g transform="translate(871 4)">
        <path d="M0 -76L65.8 -38L65.8 38L0 76L-65.8 38L-65.8 -38Z" fill="#12d0bd"/>
      </g>
      <g transform="translate(637 48)">
        <path d="M0 -62L53.7 -31L53.7 31L0 62L-53.7 31L-53.7 -31Z" fill="#12d0bd"/>
      </g>
      <g transform="translate(819 517)">
        <path d="M0 -81L70.1 -40.5L70.1 40.5L0 81L-70.1 40.5L-70.1 -40.5Z" fill="#12d0bd"/>
      </g>
      <g transform="translate(140 65)">
        <path d="M0 -51L44.2 -25.5L44.2 25.5L0 51L-44.2 25.5L-44.2 -25.5Z" fill="#12d0bd"/>
      </g>
      <g transform="translate(8 355)">
        <path d="M0 -40L34.6 -20L34.6 20L0 40L-34.6 20L-34.6 -20Z" fill="#12d0bd"/>
      </g>
      <g transform="translate(580 566)">
        <path d="M0 -55L47.6 -27.5L47.6 27.5L0 55L-47.6 27.5L-47.6 -27.5Z" fill="#12d0bd"/>
      </g>
      <g transform="translate(888 192)">
        <path d="M0 -67L58 -33.5L58 33.5L0 67L-58 33.5L-58 -33.5Z" fill="#12d0bd"/>
      </g>
    </g>
  </svg>